<svg width="16" height="16" viewBox="0 0 16 16" fill="none" xmlns="http://www.w3.org/2000/svg">
<path fill-rule="evenodd" clip-rule="evenodd" d="M2.01745 3.47852C1.02621 3.47852 0.222656 4.28207 0.222656 5.27331V13.2077C0.222656 14.1989 1.02621 15.0025 2.01745 15.0025H13.9828C14.974 15.0025 15.7776 14.1989 15.7776 13.2077V5.27331C15.7776 4.28207 14.974 3.47852 13.9828 3.47852H2.01745ZM2.63059 4.6306C2.1599 4.6306 1.77832 5.01218 1.77832 5.48288V12.9977C1.77832 13.4684 2.1599 13.85 2.6306 13.85H13.3703C13.841 13.85 14.2225 13.4684 14.2225 12.9977V5.48288C14.2225 5.01218 13.841 4.6306 13.3703 4.6306H2.63059Z" fill="white"/>
<path d="M5.42406 6.18501C5.42403 3.90361 5.02188 1 8.27559 1C11.5293 1 11.2343 3.90361 11.2343 6.18501" stroke="white" stroke-width="1.55549" stroke-linecap="round"/>
</svg>
